<?xml version="1.0" standalone="no"?><!DOCTYPE svg PUBLIC "-//W3C//DTD SVG 1.1//EN" "http://www.w3.org/Graphics/SVG/1.1/DTD/svg11.dtd"><svg t="1665065207806" class="icon" viewBox="0 0 1024 1024" version="1.1" xmlns="http://www.w3.org/2000/svg" p-id="2542" width="16" height="16" xmlns:xlink="http://www.w3.org/1999/xlink"><path d="M213.333333 682.666667c0 166.4 132.266667 298.666667 298.666667 298.666666s298.666667-132.266667 298.666667-298.666666v-170.666667H213.333333v170.666667zM686.933333 187.733333l89.6-89.6-34.133333-34.133333-98.133333 98.133333c-38.4-21.333333-85.333333-34.133333-132.266667-34.133333s-93.866667 12.8-132.266667 29.866667L281.6 59.733333l-34.133333 38.4 89.6 89.6C260.266667 238.933333 213.333333 328.533333 213.333333 426.666667v42.666666h597.333334v-42.666666c0-98.133333-46.933333-187.733333-123.733334-238.933334zM384 384c-25.6 0-42.666667-17.066667-42.666667-42.666667s17.066667-42.666667 42.666667-42.666666 42.666667 17.066667 42.666667 42.666666-17.066667 42.666667-42.666667 42.666667z m256 0c-25.6 0-42.666667-17.066667-42.666667-42.666667s17.066667-42.666667 42.666667-42.666666 42.666667 17.066667 42.666667 42.666666-17.066667 42.666667-42.666667 42.666667z" p-id="2543" fill="#08af72"></path></svg>