<?xml version="1.0" standalone="no"?><!DOCTYPE svg PUBLIC "-//W3C//DTD SVG 1.1//EN" "http://www.w3.org/Graphics/SVG/1.1/DTD/svg11.dtd"><svg t="1665065731549" class="icon" viewBox="0 0 1024 1024" version="1.1" xmlns="http://www.w3.org/2000/svg" p-id="1256" width="16" height="16" xmlns:xlink="http://www.w3.org/1999/xlink"><path d="M180 427.2c14.4 0 26.4-9.6 30.4-23.2C255.2 280.8 373.6 192 512 192c154.4 0 284 110.4 313.6 256H768l97.6 96.8L960 448h-69.6C860 266.4 702.4 128 512 128c-167.2 0-309.6 107.2-362.4 256.8-0.8 3.2-1.6 6.4-1.6 10.4 0 17.6 14.4 32 32 32zM844 596.8c-14.4 0-26.4 9.6-30.4 23.2C768.8 743.2 650.4 832 512 832c-154.4 0-284-110.4-313.6-256h56.8L158.4 479.2 64 576h69.6c30.4 181.6 188 320 378.4 320 167.2 0 309.6-107.2 362.4-256.8 0.8-3.2 1.6-6.4 1.6-10.4 0-17.6-14.4-32-32-32z" p-id="1257" fill="#08af72"></path></svg>