<?xml version="1.0" standalone="no"?><!DOCTYPE svg PUBLIC "-//W3C//DTD SVG 1.1//EN" "http://www.w3.org/Graphics/SVG/1.1/DTD/svg11.dtd"><svg t="1665065575338" class="icon" viewBox="0 0 1024 1024" version="1.1" xmlns="http://www.w3.org/2000/svg" p-id="4440" width="16" height="16" xmlns:xlink="http://www.w3.org/1999/xlink"><path d="M544.033302 516.000776V96.000564c0-17.672051-14.478655-31.998984-32.150706-31.998984s-32.150706 14.326933-32.150707 31.998984v420.061624c-54.909072 14.251072-95.809105 64.333925-95.809105 123.935554 0 59.691941 40.82056 109.836206 96.090876 124.000579a32.298816 32.298816 0 0 0-0.281771 4.006195v159.99492c0 17.672051 14.478655 31.998984 32.150707 31.998984s32.150706-14.326933 32.150706-31.998984V768.004516a32.280754 32.280754 0 0 0-0.317894-3.941171c55.389526-14.088512 96.397933-64.301413 96.397932-124.058378 0.010837-59.691941-40.809723-109.832593-96.080038-124.004191z m13.221527 169.249989a64.00158 64.00158 0 1 1 18.744945-45.256635 63.578925 63.578925 0 0 1-18.744945 45.260247zM223.678606 196.003711a32.287979 32.287979 0 0 0 0.292607-4.002582V96.000564a31.970084 31.970084 0 1 0-63.940169 0V192.001129a32.371065 32.371065 0 0 0 0.180622 4.060381c-55.270316 14.160761-96.173962 64.301413-96.173961 124.000579s40.910871 109.818143 96.181186 123.996966a32.360228 32.360228 0 0 0-0.184234 3.937558V927.999436a31.970084 31.970084 0 1 0 63.940169 0V448.000226a32.287979 32.287979 0 0 0-0.278158-3.883372c55.385914-14.088512 96.350971-64.301413 96.350971-124.054765S279.071744 210.084998 223.678606 196.003711z m13.575545 169.315013A64.00158 64.00158 0 1 1 255.999097 320.062089a63.578925 63.578925 0 0 1-18.744946 45.256635zM959.99842 320.062089c0-59.775027-41.048144-109.977091-96.45212-124.058378a32.360228 32.360228 0 0 0 0.173397-4.002582V96.000564a31.970084 31.970084 0 1 0-63.940169 0V192.001129a32.291592 32.291592 0 0 0 0.299833 4.060381c-55.270316 14.160761-96.116162 64.301413-96.116163 124.000579s40.82056 109.836206 96.090876 124.000578a32.298816 32.298816 0 0 0-0.281771 3.99897V927.999436a31.970084 31.970084 0 1 0 63.940169 0V448.061637a32.381903 32.381903 0 0 0-0.166172-3.941171c55.407588-14.084899 96.452119-64.286963 96.45212-124.058377z m-82.746526 45.253022a63.997968 63.997968 0 1 1 18.748558-45.253022 63.578925 63.578925 0 0 1-18.748558 45.253022z" fill="#08af72" p-id="4441"></path></svg>